<svg xmlns="http://www.w3.org/2000/svg" xmlns:xlink="http://www.w3.org/1999/xlink" version="1.1" id="Слой_1" x="0px" y="0px" viewBox="0 0 455.07 303.36" style="enable-background:new 0 0 455.07 303.36;" xml:space="preserve">
<path d="M127.56,275.63l49.88-28.8l49.88,28.8l51.08-29.49v-57.6l48.82-28.19l55.1,17.9l34.88-48.01l-33.96-46.74l15.52-32.48  l-11.41-3.71l-6.53,35.4l-52.4,17.03l4.66-55.9h-12l4.62,55.42l-48.5-28l-51.08,29.49v57.6l-47.3,27.31l4.62-55.42h-12l4.62,55.42  l-48.5-28l-51.08,29.49v51.61l-33.92,19.59l1.2,2.08l32.72-18.89v4.6l3.98,2.3l-32.72,18.89l1.2,2.08l33.92-19.59L127.56,275.63z   M381.42,85.06l32.83,45.19l-32.83,45.19l-53.12-17.26v-55.86L381.42,85.06z M277.21,74.04l48.68,28.11v56.21L278.7,185.6  l4.51-34.64h-12l4.51,34.64l-47.19-27.25v-56.21L277.21,74.04z M227.33,160.43l48.68,28.11v56.21l-48.68,28.11l-48.68-28.11v-56.21  L227.33,160.43z M78.88,188.54l48.68-28.11l48.68,28.11v56.21l-48.68,28.11l-48.68-28.11V188.54z"/>
<rect x="124.5" y="249.67" transform="matrix(0.866 -0.5001 0.5001 0.866 -105.7124 107.2956)" width="45.63" height="2.4"/>
<path d="M35.03,261.45c-2.12-1.26-4.51-1.89-7.15-1.89c-4.04,0-7.33,1.34-9.88,4.03s-3.83,6.41-3.83,11.16  c0,2.51,0.55,4.9,1.64,7.15s2.7,4.03,4.82,5.33s4.53,1.95,7.23,1.95c2.49,0,4.8-0.59,6.95-1.77s3.81-2.91,4.98-5.21  s1.76-4.89,1.76-7.79c0-2.87-0.56-5.43-1.67-7.69S37.16,262.71,35.03,261.45z M34.89,282.93c-1.84,2.01-4.19,3.01-7.04,3.01  c-2.8,0-5.13-0.99-6.98-2.98s-2.78-4.7-2.78-8.15c0-4.31,0.97-7.39,2.9-9.23s4.24-2.76,6.92-2.76c1.89,0,3.59,0.48,5.11,1.44  c1.52,0.96,2.67,2.3,3.46,4.04s1.18,3.77,1.18,6.1C37.65,278.08,36.73,280.93,34.89,282.93z"/>





<path d="M392.52,41.85c2.12,1.3,4.53,1.95,7.23,1.95c2.48,0,4.8-0.59,6.95-1.77s3.81-2.91,4.98-5.21s1.76-4.89,1.76-7.79  c0-2.87-0.56-5.43-1.67-7.69c-1.12-2.26-2.73-4.02-4.86-5.28s-4.5-1.89-7.15-1.89c-4.04,0-7.33,1.34-9.88,4.03  s-3.83,6.41-3.83,11.16c0,2.51,0.55,4.9,1.64,7.15S390.39,40.55,392.52,41.85z M392.86,20.2c1.93-1.84,4.24-2.76,6.92-2.76  c1.89,0,3.59,0.48,5.11,1.44c1.52,0.96,2.67,2.3,3.45,4.04c0.79,1.74,1.18,3.77,1.18,6.1c0,3.69-0.92,6.53-2.76,8.54  c-1.84,2.01-4.19,3.01-7.04,3.01c-2.8,0-5.13-0.99-6.98-2.98c-1.86-1.99-2.79-4.7-2.79-8.15C389.96,25.12,390.92,22.04,392.86,20.2z  "/>
<polygon points="422.22,29.82 437.11,29.82 437.11,43.31 440.9,43.31 440.9,14.68 437.11,14.68 437.11,26.44 422.22,26.44   422.22,14.68 418.43,14.68 418.43,43.31 422.22,43.31 "/>
<polygon points="338.31,231.09 338.31,202.46 334.52,202.46 334.52,214.22 319.64,214.22 319.64,202.46 315.85,202.46   315.85,231.09 319.64,231.09 319.64,217.6 334.52,217.6 334.52,231.09 "/>
<polygon points="321.09,195.96 333.09,195.96 332.66,193.56 321.52,193.56 "/>
<polygon points="323.28,183.72 330.91,183.72 330.48,181.32 323.71,181.32 "/>
<polygon points="325.89,169.08 325.46,171.48 328.72,171.48 328.29,169.08 "/>
</svg>