<svg height="2500" viewBox="0 0 240 240" width="2500" xmlns="http://www.w3.org/2000/svg" xmlns:xlink="http://www.w3.org/1999/xlink"><linearGradient id="a" gradientTransform="matrix(6 0 0 -6 4255 3247)" gradientUnits="userSpaceOnUse" x1="-683.305" x2="-693.305" y1="534.845" y2="511.512"><stop offset="0"/><stop offset="1"/></linearGradient><linearGradient id="b" gradientTransform="matrix(1 0 0 -1 0 242)" gradientUnits="userSpaceOnUse" x1="128.991" x2="153.991" y1="118.245" y2="78.245"><stop offset="0" stop-color="#eff7fc"/><stop offset="1" stop-color="#fff"/></linearGradient><path d="m240 120c0 66.3-53.7 120-120 120s-120-53.7-120-120 53.7-120 120-120 120 53.7 120 120z" fill="none"/><path d="m98 175c-3.9 0-3.2-1.5-4.6-5.2l-11.4-37.6 70.8-44.2 8.3 2.2-6.9 18.8z" fill="#c8daea"/><path d="m98 175c3 0 4.3-1.4 6-3 2.6-2.5 36-35 36-35l-20.5-5-19 12-2.5 30z" fill="#a9c9dd"/><path d="m100 144.4 48.4 35.7c5.5 3 9.5 1.5 10.9-5.1l19.7-92.8c2-8.1-3.1-11.7-8.4-9.3l-115.6 44.6c-7.9 3.2-7.8 7.6-1.4 9.5l29.7 9.3 68.7-43.3c3.2-2 6.2-.9 3.8 1.3z" fill="url(#b)"/></svg>